<?xml version="1.0" encoding="UTF-8"?>
<svg version="1.1" xmlns="http://www.w3.org/2000/svg" width="128" height="128">
<path d="M0 0 C42.24 0 84.48 0 128 0 C128 42.24 128 84.48 128 128 C85.76 128 43.52 128 0 128 C0 85.76 0 43.52 0 0 Z " fill="#FAFAFA" transform="translate(0,0)"/>
<path d="M0 0 C10.56 0 21.12 0 32 0 C32 42.24 32 84.48 32 128 C7.91 128 -16.18 128 -41 128 C-41 122.06 -41 116.12 -41 110 C-27.47 110 -13.94 110 0 110 C0 96.47 0 82.94 0 69 C4.62 69 9.24 69 14 69 C14 61.41 14 53.82 14 46 C9.38 46 4.76 46 0 46 C0 30.82 0 15.64 0 0 Z " fill="#000000" transform="translate(96,0)"/>
<path d="M0 0 C24.09 0 48.18 0 73 0 C73 5.94 73 11.88 73 18 C59.47 18 45.94 18 32 18 C32 31.53 32 45.06 32 59 C27.38 59 22.76 59 18 59 C18 66.59 18 74.18 18 82 C22.62 82 27.24 82 32 82 C32 97.18 32 112.36 32 128 C21.44 128 10.88 128 0 128 C0 85.76 0 43.52 0 0 Z " fill="#000000" transform="translate(0,0)"/>
<path d="M0 0 C2.97 0 5.94 0 9 0 C9 2.97 9 5.94 9 9 C22.53 9 36.06 9 50 9 C50 14.94 50 20.88 50 27 C44.06 27 38.12 27 32 27 C32 22.71 32 18.42 32 14 C21.44 14 10.88 14 0 14 C0 9.38 0 4.76 0 0 Z " fill="#080808" transform="translate(23,64)"/>
<path d="M0 0 C5.94 0 11.88 0 18 0 C18 4.29 18 8.58 18 13 C28.56 13 39.12 13 50 13 C50 17.62 50 22.24 50 27 C47.03 27 44.06 27 41 27 C41 24.03 41 21.06 41 18 C27.47 18 13.94 18 0 18 C0 12.06 0 6.12 0 0 Z " fill="#080808" transform="translate(55,37)"/>
</svg>
